<svg data-v-423bf9ae="" xmlns="http://www.w3.org/2000/svg" viewBox="0 0 430 95" class="iconLeft"><!----><!----><!----><g data-v-423bf9ae="" id="20870cef-76ea-4bef-b270-97da78874f79" fill="#D1A103" transform="matrix(4.344677637719095,0,0,4.344677637719095,99.57803071434077,17.155597250103504)"><path d="M4.65 0.70L1.41 9.45L0.21 9.91L0.31 10.50L3.50 10.50L3.60 9.91L2.16 9.45L2.95 7.20L6.62 7.20L7.41 9.45L6.20 9.91L6.30 10.50L10.11 10.50L10.22 9.91L9.02 9.45L5.87 0.46ZM5.00 1.78L5.00 2.49L6.41 6.61L3.18 6.61ZM16.10 5.47L16.10 4.05C15.69 3.88 15.27 3.81 14.85 3.81C14.13 3.81 13.59 4.06 13.12 4.33L12.63 3.81L11.00 3.96L11.10 4.47L11.80 4.47L11.80 9.70L10.89 10.00L10.99 10.50L13.93 10.50L14.04 10.00L13.12 9.70L13.12 4.84C13.61 4.66 14.21 4.47 14.60 4.47C14.94 4.47 15.09 4.51 15.29 4.58L15.60 5.57ZM18.96 9.70L18.96 4.84C19.40 4.63 19.91 4.47 20.45 4.47C21.20 4.47 21.84 5.00 21.84 5.89L21.84 9.70L20.93 10.00L21.04 10.50L23.97 10.50L24.07 10.00L23.16 9.70L23.16 6.10C23.16 4.62 22.30 3.81 20.78 3.81C20.05 3.81 19.54 4.05 18.96 4.33L18.45 3.81L16.84 3.96L16.94 4.47L17.64 4.47L17.64 9.70L16.73 10.00L16.83 10.50L19.77 10.50L19.88 10.00ZM27.36 9.70L27.36 3.96L26.71 3.81L25.23 3.96L25.33 4.47L26.04 4.47L26.04 9.70L25.12 10.00L25.23 10.50L28.15 10.50L28.27 10.00ZM26.66 0.74C26.25 0.74 25.90 1.08 25.90 1.50C25.90 1.92 26.25 2.25 26.66 2.25C27.08 2.25 27.43 1.92 27.43 1.50C27.43 1.08 27.08 0.74 26.66 0.74ZM30.90 6.54C31.01 5.24 31.57 4.33 32.77 4.33C33.74 4.33 34.27 4.87 34.27 5.89C34.27 6.09 34.23 6.36 34.17 6.54ZM33.11 10.00C31.60 10.00 30.87 8.79 30.87 7.11L30.87 7.04L35.35 7.04C35.46 6.80 35.59 6.38 35.59 6.01C35.59 4.66 34.40 3.81 32.77 3.81C30.81 3.81 29.39 5.07 29.39 7.22C29.39 9.30 30.55 10.65 33.03 10.65C33.94 10.65 34.83 10.37 35.43 9.83L35.11 9.37C34.54 9.73 33.85 10.00 33.11 10.00ZM37.34 4.59L37.81 0.70L37.42 0.46L36.48 0.70L36.95 4.59ZM40.92 10.65C42.55 10.65 43.47 9.88 43.47 8.69C43.47 7.46 42.41 6.99 41.41 6.57C40.75 6.29 39.91 5.94 39.91 5.31C39.91 4.73 40.42 4.33 41.17 4.33C41.62 4.33 42.10 4.41 42.41 4.56L42.69 5.57L43.19 5.47L43.19 4.31C42.59 4.00 41.94 3.81 41.33 3.81C39.80 3.81 38.81 4.54 38.81 5.67C38.81 6.78 39.65 7.25 40.59 7.69C41.37 8.04 42.35 8.37 42.35 9.06C42.35 9.73 41.71 10.14 40.81 10.14C40.52 10.14 40.07 10.02 39.76 9.91L39.30 8.55L38.78 8.65L38.78 10.14C39.49 10.49 40.32 10.65 40.92 10.65ZM50.23 10.65C51.86 10.65 52.78 9.88 52.78 8.69C52.78 7.46 51.72 6.99 50.72 6.57C50.06 6.29 49.22 5.94 49.22 5.31C49.22 4.73 49.73 4.33 50.48 4.33C50.93 4.33 51.41 4.41 51.72 4.56L52.00 5.57L52.50 5.47L52.50 4.31C51.90 4.00 51.25 3.81 50.64 3.81C49.11 3.81 48.12 4.54 48.12 5.67C48.12 6.78 48.96 7.25 49.90 7.69C50.68 8.04 51.66 8.37 51.66 9.06C51.66 9.73 51.02 10.14 50.12 10.14C49.83 10.14 49.38 10.02 49.07 9.91L48.61 8.55L48.09 8.65L48.09 10.14C48.80 10.49 49.63 10.65 50.23 10.65ZM55.83 9.70L55.83 4.84C56.28 4.65 56.85 4.47 57.39 4.47C58.11 4.47 58.65 5.00 58.65 5.89L58.65 9.70L57.72 10.00L57.83 10.50L60.77 10.50L60.87 10.00L59.96 9.70L59.96 6.10C59.96 4.62 59.01 3.81 57.50 3.81C56.91 3.81 56.28 4.07 55.83 4.33L55.83 0.20L55.20 0.04L53.55 0.20L53.66 0.70L54.52 0.70L54.52 9.70L53.61 10.00L53.70 10.50L56.64 10.50L56.74 10.00ZM65.14 3.81C63.07 3.81 61.85 5.12 61.85 7.22C61.85 9.32 62.93 10.65 65.14 10.65C67.37 10.65 68.43 9.38 68.43 7.22C68.43 5.07 67.21 3.81 65.14 3.81ZM65.14 4.33C66.32 4.33 67.09 5.39 67.09 7.18C67.09 8.96 66.33 10.14 65.14 10.14C63.95 10.14 63.21 8.95 63.21 7.18C63.21 5.42 63.98 4.33 65.14 4.33ZM71.74 10.50L72.35 10.50C74.49 10.50 76.05 9.11 76.05 7.03C76.05 4.87 75.12 3.81 73.07 3.81C72.49 3.81 71.69 4.10 71.29 4.33L70.71 3.81L69.02 3.96L69.13 4.47L69.97 4.47L69.97 13.05L69.06 13.34L69.17 13.85L72.10 13.85L72.21 13.34L71.29 13.05L71.29 4.84C71.92 4.62 72.39 4.47 72.94 4.47C73.96 4.47 74.56 5.03 74.56 6.93C74.56 8.83 73.43 9.98 72.32 9.98L71.74 9.98Z"></path></g><!----><g data-v-423bf9ae="" id="41a1063e-e09c-49a8-96c4-b1aa9b9b318c" transform="matrix(1.0255555046929254,0,0,1.0255555046929254,-10.524001368122605,-0.36260635524337204)" stroke="none" fill="#D1A103"><circle cx="48.2" cy="11" r="9.7"></circle><path d="M15.49 49.893l19.415 1.824-.3 3.186-19.414-1.824z"></path><path d="M88.8 30.5l-2.1-1.7c-.6-.5-1.5-.4-2 .2L83 31.1l-10.8-8.6 1.7-2.1c.4-.5.4-1.5-.2-2l-2.1-1.7c-.6-.5-1.5-.4-2 .2l-5.4 6.7c-.5.6-.4 1.5.2 2l2.1 1.7c.6.5 1.5.4 2-.2l1.6-2 1.8 1.4c-.2.1-.4.3-.6.5l-7.9 8-12.3-9.5c-3.6-2.7-8.3-3.2-12.4-1.2l-14.5 7.4c-1.5.8-2.4 2.3-2.3 4l.7 14.6-1.6-.2.2-2.6c.1-.9-.5-1.5-1.3-1.6l-2.7-.2c-.8-.1-1.5.5-1.6 1.3l-.8 8.5c-.1.8.5 1.5 1.3 1.6l2.7.2c.8.1 1.5-.5 1.6-1.3l.2-2.6 2.3.2c.5 1.9 2.2 3.3 4.2 3.3h.2c1.7-.1 3-1.1 3.7-2.5l1.7.2-.2 2.8c-.1.8.5 1.5 1.3 1.6l2.7.2h.2c.7 0 1.3-.6 1.4-1.3l.8-8.5c.1-.9-.5-1.6-1.3-1.6l-2.7-.2h-.2c-.7 0-1.3.6-1.4 1.3l-.3 2.4-1.7-.2-.6-13.1 4.8-2.4-.5 10.3h.1l2.6.2c.8 0 1.5.4 2.1 1 .6.7.9 1.5.8 2.4l-.7 8.5c-.2 1.5-1.5 2.7-3 2.7h-.3l-2.5-.2-8.8 13-12.7 10.6c-2 1.7-2.3 4.8-.5 6.8 1 1.1 2.3 1.7 3.7 1.7 1.1 0 2.2-.4 3.1-1.2l12.9-11.1c.3-.3.6-.6.9-1L42 65.6l11.1 7.5-3.7 14.5c-.7 2.6.9 5.2 3.5 5.9.4.1.8.1 1.2.1 2.2 0 4.1-1.5 4.7-3.6l4.5-17.8c.5-2-.3-4-2-5.2l-11.1-7.5c.2-.6.3-1.2.3-1.9l1-21.1 9.8 7.5c1.7 1.3 4.2 1.2 5.7-.4l10.5-10.7c.4-.4.7-.8.9-1.3l2.6 2.1-1.7 2.1c-.5.6-.4 1.5.2 2l2.1 1.7c.6.5 1.5.4 2-.2l5.4-6.7c.6-.7.5-1.5-.2-2.1z"></path></g><!----></svg>